# xmcd
#
# Track frame offsets: 
#        150
#        20429
#        46068
#        75139
#        108629
#        127530
#        174090
#        198065
#        219021
#        237522
#        256075
#
# Disc length: 4029 seconds
#
# Revision: 1
# Processed by: cddbd v1.5.2PL0 Copyright (c) Steve Scherf et al.
# Submitted via: ExactAudioCopy v0.95b3
#
DISCID=700fbb0b
DTITLE=Dan Patlansky - REAL
DYEAR=2008
DGENRE=Blues
TTITLE0=Real
TTITLE1=Dead Shrimp Blues
TTITLE2=Only An Ocean
TTITLE3=Bad Weather Blues
TTITLE4=Try My Lovin' Arms
TTITLE5=Got A Bad, Bad Feeling
TTITLE6=The Doctor
TTITLE7=Southern Mon
TTITLE8=Frozen Dirt
TTITLE9=Your Mama Don't Dance
TTITLE10=Blues For New Orleans
EXTD=
EXTT0=
EXTT1=
EXTT2=
EXTT3=
EXTT4=
EXTT5=
EXTT6=
EXTT7=
EXTT8=
EXTT9=
EXTT10=
PLAYORDER=
